<svg xmlns="http://www.w3.org/2000/svg" width="19" height="19" viewBox="0 0 19 19"><g><g><path fill="#95989a" d="M9.5 6.16a3.344 3.344 0 0 1 3.34 3.34c-.183 4.43-6.496 4.43-6.68 0A3.344 3.344 0 0 1 9.5 6.16zm4.824 3.34c-.264-6.398-9.383-6.4-9.648 0A4.83 4.83 0 0 0 9.5 14.324 4.83 4.83 0 0 0 14.324 9.5zm.408-6.16a.928.928 0 1 0 0 1.855.928.928 0 0 0 0-1.855zm-.185-1.856a2.972 2.972 0 0 1 2.969 2.97v10.093a2.972 2.972 0 0 1-2.97 2.969H4.454a2.972 2.972 0 0 1-2.969-2.97V4.454a2.972 2.972 0 0 1 2.97-2.969zm0 17.516A4.458 4.458 0 0 0 19 14.547V4.453A4.458 4.458 0 0 0 14.547 0H4.453A4.458 4.458 0 0 0 0 4.453v10.094A4.458 4.458 0 0 0 4.453 19h10.094z"/></g></g></svg>