<svg xmlns="http://www.w3.org/2000/svg" width="25" height="17" viewBox="0 0 25 17"><g><g clip-path="url(#clip-6e84d471-95bc-4b58-be74-619a25c55548)"><path fill="#95989a" d="M9.965 12.34v-7.4l6.424 3.7zm14.291-9.636A3.092 3.092 0 0 0 22.081.528C20.15 0 12.425 0 12.425 0S4.7 0 2.768.508A3.155 3.155 0 0 0 .593 2.704C.085 4.635.085 8.64.085 8.64s0 4.025.508 5.936a3.092 3.092 0 0 0 2.175 2.175c1.952.53 9.657.53 9.657.53s7.725 0 9.656-.51a3.092 3.092 0 0 0 2.176-2.175c.508-1.93.508-5.936.508-5.936s.02-4.025-.509-5.956z"/></g></g></svg>